<svg width="180" height="50" viewBox="0 0 180 50" fill="none" xmlns="http://www.w3.org/2000/svg">
<path d="M24.7253 0.00268555C10.9603 0.00268555 -0.20764 11.3058 0.00292956 25.115C0.2057 38.2847 10.9135 49.1095 24.0832 49.4474C29.1031 49.5748 33.798 48.197 37.7546 45.7404V47.3781C37.7546 48.1242 38.3577 48.7273 39.1038 48.7273H48.1011C48.8472 48.7273 49.4503 48.1242 49.4503 47.3781V24.7303C49.4503 11.0979 38.3603 0.00527977 24.7253 0.00527977V0.00268555ZM24.7253 37.7569C17.5399 37.7569 11.696 31.913 11.696 24.7276C11.696 17.5423 17.5399 11.6984 24.7253 11.6984C31.9106 11.6984 37.7546 17.5423 37.7546 24.7276C37.7546 31.913 31.9106 37.7569 24.7253 37.7569Z" fill="white"/>
<path d="M93.8189 6.04931L88.7002 13.4452C88.2869 14.0431 87.4732 14.2095 86.8623 13.8118C84.6942 12.395 82.079 11.6047 79.2844 11.7061C72.2316 11.9608 66.7308 17.9478 66.7308 25.0057V47.3728C66.7308 48.1189 66.1277 48.722 65.3816 48.722H56.3844C55.6383 48.722 55.0352 48.1189 55.0352 47.3728V2.40204C55.0352 1.65595 55.6383 1.05284 56.3844 1.05284H65.3816C66.1277 1.05284 66.7308 1.65595 66.7308 2.40204V3.72005C70.5133 1.3622 74.982 0 79.7601 0C84.8268 0 89.5425 1.53117 93.4653 4.15679C94.0892 4.57533 94.2478 5.42801 93.8189 6.04671V6.04931Z" fill="white"/>
<path d="M131.346 27.0619C130.738 27.0619 130.213 27.4701 130.049 28.055C128.533 33.4726 123.752 37.5826 117.906 37.7516C110.102 37.9751 103.761 31.3019 104.557 23.3887C105.163 17.368 110.383 12.2493 116.411 11.7476C119.45 11.4954 122.294 12.2909 124.626 13.8143C125.232 14.2094 126.043 14.0327 126.453 13.44L131.567 6.04404C131.996 5.42533 131.837 4.57005 131.211 4.15412C127.288 1.5337 122.577 0.00512695 117.521 0.00512695C109.959 0.00512695 103.179 3.41583 98.6454 8.78144C98.1904 9.31176 97.7641 9.86028 97.3585 10.427L97.0206 10.9183C94.3482 14.8645 92.791 19.6192 92.791 24.7301C92.791 30.8028 94.9903 36.3738 98.6428 40.684C103.182 46.047 109.956 49.4577 117.519 49.4577C125.081 49.4577 131.855 46.047 136.394 40.6814C139.246 37.3096 141.214 33.1659 141.937 28.6139C142.067 27.8002 141.422 27.0672 140.601 27.0672H131.343L131.346 27.0619Z" fill="white"/>
<path d="M155.274 0.00244141C147.717 0.00244141 140.938 3.41314 136.399 8.77875C133.708 11.9581 131.805 15.8289 130.994 20.0819C130.838 20.906 131.485 21.665 132.325 21.665H141.678C142.261 21.665 142.77 21.2907 142.957 20.7396C144.668 15.6495 149.298 11.8619 154.908 11.7059C162.715 11.4876 169.05 18.1764 168.236 26.1C167.62 32.1103 162.397 37.2186 156.377 37.7125C153.346 37.9621 150.509 37.1692 148.183 35.6536C147.58 35.2585 146.769 35.4352 146.358 36.0279L141.239 43.4239C140.81 44.0426 140.969 44.8978 141.595 45.3164C145.827 48.1396 150.975 49.6915 156.491 49.4264C169.123 48.8207 179.37 38.5704 179.973 25.9388C180.652 11.7605 169.315 0.00503563 155.277 0.00503563L155.274 0.00244141Z" fill="white"/>
</svg>
