<svg width="693" height="191" viewBox="0 0 693 191" fill="none" xmlns="http://www.w3.org/2000/svg">
<path d="M95.1112 0.0100098C42.1612 0.0100098 -0.798731 43.49 0.0112692 96.61C0.791269 147.27 41.9813 188.91 92.6413 190.21C111.951 190.7 130.011 185.4 145.231 175.95V182.25C145.231 185.12 147.551 187.44 150.421 187.44H185.031C187.901 187.44 190.221 185.12 190.221 182.25V95.13C190.221 42.69 147.561 0.019989 95.1112 0.019989V0.0100098ZM95.1112 145.24C67.4712 145.24 44.9912 122.76 44.9912 95.12C44.9912 67.48 67.4712 45 95.1112 45C122.751 45 145.231 67.48 145.231 95.12C145.231 122.76 122.751 145.24 95.1112 145.24Z" fill="black"/>
<path d="M360.891 23.27L341.201 51.72C339.611 54.02 336.481 54.66 334.131 53.13C325.791 47.68 315.731 44.64 304.981 45.03C277.851 46.01 256.691 69.04 256.691 96.19V182.23C256.691 185.1 254.371 187.42 251.501 187.42H216.891C214.021 187.42 211.701 185.1 211.701 182.23V9.23999C211.701 6.36999 214.021 4.04999 216.891 4.04999H251.501C254.371 4.04999 256.691 6.36999 256.691 9.23999V14.31C271.241 5.24 288.431 0 306.811 0C326.301 0 344.441 5.88999 359.531 15.99C361.931 17.6 362.541 20.88 360.891 23.26V23.27Z" fill="black"/>
<path d="M505.242 104.1C502.902 104.1 500.882 105.67 500.252 107.92C494.422 128.76 476.032 144.57 453.542 145.22C423.522 146.08 399.132 120.41 402.192 89.97C404.522 66.81 424.602 47.12 447.792 45.19C459.482 44.22 470.422 47.28 479.392 53.14C481.722 54.66 484.842 53.98 486.422 51.7L506.092 23.25C507.742 20.87 507.132 17.58 504.722 15.98C489.632 5.90001 471.512 0.0200195 452.062 0.0200195C422.972 0.0200195 396.892 13.14 379.452 33.78C377.702 35.82 376.062 37.93 374.502 40.11L373.202 42C362.922 57.18 356.932 75.47 356.932 95.13C356.932 118.49 365.392 139.92 379.442 156.5C396.902 177.13 422.962 190.25 452.052 190.25C481.142 190.25 507.202 177.13 524.662 156.49C535.632 143.52 543.202 127.58 545.982 110.07C546.482 106.94 544.002 104.12 540.842 104.12H505.232L505.242 104.1Z" fill="black"/>
<path d="M597.292 0.0100098C568.222 0.0100098 542.142 13.13 524.682 33.77C514.332 46 507.012 60.89 503.892 77.25C503.292 80.42 505.783 83.34 509.013 83.34H544.992C547.232 83.34 549.192 81.9 549.912 79.78C556.492 60.2 574.302 45.63 595.882 45.03C625.913 44.19 650.282 69.92 647.152 100.4C644.782 123.52 624.692 143.17 601.532 145.07C589.872 146.03 578.963 142.98 570.013 137.15C567.693 135.63 564.572 136.31 562.992 138.59L543.302 167.04C541.652 169.42 542.262 172.71 544.672 174.32C560.952 185.18 580.752 191.15 601.972 190.13C650.562 187.8 689.982 148.37 692.302 99.78C694.912 45.24 651.302 0.019989 597.302 0.019989L597.292 0.0100098Z" fill="black"/>
</svg>
