<svg width="236" height="236" viewBox="0 0 236 236" fill="none" xmlns="http://www.w3.org/2000/svg">
<path d="M182.67 0H52.7C23.5946 0 0 23.5946 0 52.7V182.67C0 211.775 23.5946 235.37 52.7 235.37H182.67C211.775 235.37 235.37 211.775 235.37 182.67V52.7C235.37 23.5946 211.775 0 182.67 0Z" fill="black"/>
<path d="M51.6904 92.6904C37.7704 92.6904 26.4804 104.12 26.6904 118.08C26.8904 131.4 37.7204 142.34 51.0404 142.68C56.1204 142.81 60.8604 141.42 64.8604 138.93V140.59C64.8604 141.34 65.4704 141.95 66.2204 141.95H75.3204C76.0704 141.95 76.6804 141.34 76.6804 140.59V117.69C76.6804 103.91 65.4704 92.6904 51.6804 92.6904H51.6904ZM51.6904 130.86C44.4304 130.86 38.5204 124.95 38.5204 117.69C38.5204 110.43 44.4304 104.52 51.6904 104.52C58.9504 104.52 64.8604 110.43 64.8604 117.69C64.8604 124.95 58.9504 130.86 51.6904 130.86Z" fill="white"/>
<path d="M121.55 98.8004L116.37 106.28C115.95 106.88 115.13 107.05 114.51 106.65C112.32 105.22 109.67 104.42 106.85 104.52C99.7198 104.78 94.1598 110.83 94.1598 117.97V140.59C94.1598 141.34 93.5498 141.95 92.7998 141.95H83.6998C82.9498 141.95 82.3398 141.34 82.3398 140.59V95.1204C82.3398 94.3704 82.9498 93.7604 83.6998 93.7604H92.7998C93.5498 93.7604 94.1598 94.3704 94.1598 95.1204V96.4504C97.9898 94.0704 102.5 92.6904 107.33 92.6904C112.45 92.6904 117.22 94.2404 121.19 96.8904C121.82 97.3104 121.98 98.1804 121.55 98.8004Z" fill="white"/>
<path d="M159.49 120.05C158.88 120.05 158.34 120.46 158.18 121.05C156.65 126.53 151.81 130.68 145.9 130.85C138.01 131.08 131.6 124.33 132.4 116.33C133.01 110.24 138.29 105.07 144.39 104.56C147.46 104.3 150.34 105.11 152.69 106.65C153.3 107.05 154.12 106.87 154.54 106.27L159.71 98.7902C160.14 98.1602 159.98 97.3002 159.35 96.8802C155.38 94.2302 150.62 92.6802 145.51 92.6802C137.86 92.6802 131.01 96.1302 126.42 101.55C125.96 102.09 125.53 102.64 125.12 103.21L124.78 103.71C122.08 107.7 120.5 112.51 120.5 117.67C120.5 123.81 122.72 129.44 126.42 133.8C131.01 139.22 137.86 142.67 145.51 142.67C153.16 142.67 160.01 139.22 164.6 133.8C167.48 130.39 169.47 126.2 170.2 121.6C170.33 120.78 169.68 120.04 168.85 120.04H159.49V120.05Z" fill="white"/>
<path d="M183.689 92.6904C176.049 92.6904 169.189 96.1404 164.599 101.56C161.879 104.77 159.959 108.69 159.139 112.99C158.979 113.82 159.639 114.59 160.479 114.59H169.939C170.529 114.59 171.039 114.21 171.229 113.65C172.959 108.5 177.639 104.67 183.309 104.52C191.199 104.3 197.609 111.06 196.789 119.07C196.169 125.15 190.889 130.31 184.799 130.81C181.739 131.06 178.869 130.26 176.519 128.73C175.909 128.33 175.089 128.51 174.669 129.11L169.489 136.59C169.059 137.22 169.219 138.08 169.849 138.5C174.129 141.35 179.329 142.92 184.909 142.66C197.679 142.05 208.039 131.68 208.649 118.91C209.339 104.57 197.869 92.6904 183.679 92.6904H183.689Z" fill="white"/>
</svg>
