<?xml version="1.0" encoding="UTF-8"?>
<svg id="Layer_2" data-name="Layer 2" xmlns="http://www.w3.org/2000/svg" viewBox="0 0 1078.63 1078.63">
  <defs>
    <style>
      .cls-1, .cls-2 {
        stroke-width: 0px;
      }

      .cls-2 {
        fill: #fff;
      }
    </style>
  </defs>
  <g id="Layer_1-2" data-name="Layer 1">
    <g>
      <rect class="cls-1" width="1078.63" height="1078.63" rx="241.51" ry="241.51"/>
      <g>
        <path class="cls-2" d="m236.87,424.75c-63.78,0-115.53,52.38-114.55,116.35.94,61.02,50.56,111.18,111.57,112.74,23.26.59,45.01-5.79,63.35-17.18v7.59c0,3.45,2.8,6.25,6.25,6.25h41.69c3.45,0,6.25-2.8,6.25-6.25v-104.93c0-63.16-51.38-114.57-114.57-114.57Zm0,174.93c-33.29,0-60.37-27.08-60.37-60.37s27.08-60.37,60.37-60.37,60.37,27.08,60.37,60.37-27.08,60.37-60.37,60.37Z"/>
        <path class="cls-2" d="m557.01,452.77l-23.72,34.27c-1.92,2.77-5.69,3.54-8.51,1.7-10.05-6.56-22.16-10.22-35.12-9.76-32.68,1.18-58.16,28.92-58.16,61.62v103.64c0,3.45-2.8,6.25-6.25,6.25h-41.69c-3.45,0-6.25-2.8-6.25-6.25v-208.37c0-3.45,2.8-6.25,6.25-6.25h41.69c3.45,0,6.25,2.8,6.25,6.25v6.11c17.53-10.92,38.23-17.24,60.37-17.24,23.48,0,45.32,7.09,63.5,19.26,2.89,1.94,3.62,5.89,1.64,8.76Z"/>
        <g>
          <path class="cls-2" d="m730.88,550.13c-2.81,0-5.25,1.89-6.01,4.6-7.03,25.1-29.18,44.14-56.26,44.92-36.16,1.04-65.53-29.89-61.85-66.55,2.8-27.89,26.99-51.62,54.93-53.94,14.08-1.17,27.26,2.52,38.06,9.57,2.8,1.83,6.56,1.02,8.46-1.73l23.7-34.26c1.98-2.87,1.25-6.82-1.64-8.76-18.17-12.14-40-19.23-63.43-19.23-35.04,0-66.45,15.8-87.47,40.67-2.1,2.46-4.09,5-5.96,7.63l-1.56,2.27c-12.38,18.28-19.59,40.31-19.59,63.99,0,28.14,10.19,53.95,27.12,73.92,21.03,24.85,52.43,40.65,87.47,40.65s66.43-15.8,87.47-40.67c13.21-15.63,22.33-34.82,25.68-55.91.6-3.77-2.38-7.17-6.2-7.17h-42.89Z"/>
          <path class="cls-2" d="m841.76,424.75c-35.02,0-66.43,15.8-87.47,40.67-12.47,14.73-21.28,32.67-25.04,52.37-.73,3.82,2.28,7.33,6.16,7.33h43.34c2.69,0,5.06-1.74,5.92-4.29,7.92-23.59,29.38-41.13,55.37-41.86,36.18-1.01,65.52,29.99,61.76,66.69-2.86,27.85-27.05,51.51-54.95,53.81-14.04,1.15-27.19-2.52-37.97-9.55-2.8-1.83-6.56-1.01-8.46,1.74l-23.72,34.27c-1.99,2.87-1.25,6.83,1.65,8.77,19.61,13.08,43.46,20.27,69.02,19.04,58.53-2.81,106.01-50.3,108.81-108.83,3.15-65.7-49.39-120.17-114.43-120.17Z"/>
        </g>
      </g>
    </g>
  </g>
</svg>
