<?xml version="1.0" encoding="UTF-8"?>
<svg id="Layer_1" data-name="Layer 1" xmlns="http://www.w3.org/2000/svg" viewBox="0 0 1920 1080">
  <defs>
    <style>
      .cls-1, .cls-2 {
        stroke-width: 0px;
      }

      .cls-2 {
        fill: #fff;
      }
    </style>
  </defs>
  <rect class="cls-1" x="842.31" y="422.31" width="235.37" height="235.37" rx="52.7" ry="52.7"/>
  <g>
    <path class="cls-2" d="m894,515c-13.92,0-25.21,11.43-25,25.39.2,13.32,11.03,24.26,24.35,24.6,5.08.13,9.82-1.26,13.82-3.75v1.66c0,.75.61,1.36,1.36,1.36h9.1c.75,0,1.36-.61,1.36-1.36v-22.9c0-13.78-11.21-25-25-25Zm0,38.17c-7.26,0-13.17-5.91-13.17-13.17s5.91-13.17,13.17-13.17,13.17,5.91,13.17,13.17-5.91,13.17-13.17,13.17Z"/>
    <path class="cls-2" d="m963.86,521.11l-5.18,7.48c-.42.6-1.24.77-1.86.37-2.19-1.43-4.84-2.23-7.66-2.13-7.13.26-12.69,6.31-12.69,13.45v22.62c0,.75-.61,1.36-1.36,1.36h-9.1c-.75,0-1.36-.61-1.36-1.36v-45.47c0-.75.61-1.36,1.36-1.36h9.1c.75,0,1.36.61,1.36,1.36v1.33c3.83-2.38,8.34-3.76,13.17-3.76,5.12,0,9.89,1.55,13.86,4.2.63.42.79,1.29.36,1.91Z"/>
    <g>
      <path class="cls-2" d="m1001.8,542.36c-.61,0-1.15.41-1.31,1-1.53,5.48-6.37,9.63-12.28,9.8-7.89.23-14.3-6.52-13.5-14.52.61-6.09,5.89-11.26,11.99-11.77,3.07-.26,5.95.55,8.3,2.09.61.4,1.43.22,1.85-.38l5.17-7.48c.43-.63.27-1.49-.36-1.91-3.97-2.65-8.73-4.2-13.84-4.2-7.65,0-14.5,3.45-19.09,8.87-.46.54-.89,1.09-1.3,1.66l-.34.5c-2.7,3.99-4.28,8.8-4.28,13.96,0,6.14,2.22,11.77,5.92,16.13,4.59,5.42,11.44,8.87,19.09,8.87s14.5-3.45,19.09-8.87c2.88-3.41,4.87-7.6,5.6-12.2.13-.82-.52-1.56-1.35-1.56h-9.36Z"/>
      <path class="cls-2" d="m1026,515c-7.64,0-14.5,3.45-19.09,8.87-2.72,3.21-4.64,7.13-5.46,11.43-.16.83.5,1.6,1.34,1.6h9.46c.59,0,1.1-.38,1.29-.94,1.73-5.15,6.41-8.98,12.08-9.13,7.89-.22,14.3,6.54,13.48,14.55-.62,6.08-5.9,11.24-11.99,11.74-3.06.25-5.93-.55-8.28-2.08-.61-.4-1.43-.22-1.85.38l-5.18,7.48c-.43.63-.27,1.49.36,1.91,4.28,2.85,9.48,4.42,15.06,4.16,12.77-.61,23.13-10.98,23.74-23.75.69-14.34-10.78-26.22-24.97-26.22Z"/>
    </g>
  </g>
</svg>